<svg width="106" height="46" viewBox="0 0 106 46" fill="none" xmlns="http://www.w3.org/2000/svg">
<g clip-path="url(#clip0_527_8655)">
<path d="M21.192 37.3383H7.76244L5.50854 45.3679H0.0146484L9.54679 12.4984H19.5015L28.9398 45.3679H23.4459L21.192 37.3383ZM19.7833 32.4079L14.4772 13.6723L9.17113 32.4079H19.7833ZM9.49983 4.32804C9.49983 1.51066 11.5659 -0.132812 14.5711 -0.132812C17.5763 -0.132812 19.6894 1.51066 19.6894 4.32804V5.64282C19.6894 8.4602 17.6702 10.1037 14.5711 10.1037C11.472 10.1037 9.49983 8.4602 9.49983 5.64282V4.32804ZM14.5242 7.28629C15.9798 7.28629 16.7311 6.58194 16.7311 5.40804V4.56282C16.7311 3.38891 15.9798 2.68457 14.5242 2.68457C13.1624 2.68457 12.4581 3.38891 12.4581 4.56282V5.40804C12.4581 6.58194 13.1624 7.28629 14.5242 7.28629Z" fill="white"/>
<path d="M32.6943 40.4547H39.456V17.3522H32.6943V12.4688H51.5708V17.3522H44.7621V40.4547H51.5708V45.3382H32.6943V40.4547Z" fill="white"/>
<path d="M56.2637 12.4688H69.5054C75.6097 12.4688 79.4601 16.1313 79.4601 21.7192C79.4601 27.6826 75.9384 31.1104 69.5054 31.1104H62.6967L81.1975 45.3382H72.6045L61.4758 36.4634V45.3382H56.2637V12.4688ZM68.801 26.2739C72.088 26.2739 74.0601 25.147 74.0601 21.7661C74.0601 18.3853 72.088 17.2583 68.801 17.2583H61.4758V26.2739H68.801Z" fill="white"/>
<path d="M82.0664 35.7184H87.0594C87.3506 38.9662 89.2899 41.1309 93.4596 41.1309C97.9204 41.1309 99.7142 38.589 99.7142 35.0125C99.7142 31.436 97.4352 28.8941 92.7818 28.8941H82.9398L83.9572 12.4688H103.447V17.1284H88.6606L88.1754 24.1405H93.9448C100.78 24.1405 105.047 28.8002 105.047 34.9655C105.047 41.5551 101.071 45.8375 93.4596 45.8375C85.848 45.8375 82.2605 41.2248 82.0664 35.7184Z" fill="#E6F56B"/>
</g>
<defs>
<clipPath id="clip0_527_8655">
<rect width="105.024" height="46" fill="white"/>
</clipPath>
</defs>
</svg>
