<svg width="17" height="16" viewBox="0 0 17 16" fill="none" xmlns="http://www.w3.org/2000/svg">
<path d="M13.0294 11.2303C13.0443 11.2304 13.3298 11.0592 13.6637 10.8502C13.9977 10.6411 14.2643 10.4575 14.2563 10.4422C14.2483 10.427 14.0879 10.2105 13.8999 9.96097C13.5223 9.46001 13.1589 8.79769 12.9978 8.31725C12.4958 6.8199 12.7269 5.26503 13.6379 4.00996L13.8698 3.69036L13.4282 3.24875L12.9866 2.80711L12.6946 3.01514C10.7822 4.37806 8.48999 4.22124 6.45782 2.5885C6.32513 2.48187 6.21167 2.39959 6.20568 2.40558C6.15044 2.46082 5.45581 3.59656 5.45598 3.63134C5.45609 3.65649 5.57758 3.75936 5.72593 3.85985C7.36858 4.97285 9.24805 5.33575 10.7009 4.82053L11.0493 4.69694L6.20429 9.55954L3.14062 12.6344L4.03437 13.5281L7.11711 10.4566L11.9683 5.62306L11.8214 6.07205C11.4399 7.23677 11.5962 8.61714 12.2669 10.0088C12.458 10.4053 12.9729 11.23 13.0294 11.2303Z" fill="white"/>
</svg>
