<svg width="900" height="900" viewBox="0 0 900 900" fill="none" xmlns="http://www.w3.org/2000/svg">
<g clip-path="url(#clip0_89_876)">
<path d="M250.302 542.055H164.501L150.101 593.282H115L175.901 383.584H239.502L299.803 593.282H264.702L250.302 542.055ZM241.302 510.601L207.401 391.073L173.501 510.601H241.302ZM175.601 331.459C175.601 313.485 188.801 303 208.001 303C227.202 303 240.702 313.485 240.702 331.459V339.847C240.702 357.821 227.802 368.306 208.001 368.306C188.201 368.306 175.601 357.821 175.601 339.847V331.459ZM207.701 350.332C217.002 350.332 221.802 345.838 221.802 338.349V332.957C221.802 325.468 217.002 320.974 207.701 320.974C199.001 320.974 194.501 325.468 194.501 332.957V338.349C194.501 345.838 199.001 350.332 207.701 350.332Z" fill="white"/>
<path d="M323.803 562.127H367.004V414.739H323.803V383.584H444.405V414.739H400.904V562.127H444.405V593.282H323.803V562.127Z" fill="white"/>
<path d="M474.395 383.584H558.997C597.997 383.584 622.598 406.95 622.598 442.599C622.598 480.644 600.097 502.512 558.997 502.512H515.496L633.698 593.282H578.797L507.696 536.663V593.282H474.395V383.584ZM554.497 471.657C575.497 471.657 588.097 464.467 588.097 442.898C588.097 421.329 575.497 414.14 554.497 414.14H507.696V471.657H554.497Z" fill="white"/>
<path d="M639.178 531.91H671.078C672.938 552.63 685.329 566.44 711.969 566.44C740.469 566.44 751.929 550.224 751.929 527.407C751.929 504.589 737.369 488.373 707.639 488.373H644.758L651.258 383.584H775.78V413.311H681.308L678.208 458.047H715.069C758.74 458.047 786 487.774 786 527.107C786 569.146 760.6 596.467 711.969 596.467C663.338 596.467 640.418 567.039 639.178 531.91Z" fill="#E6F56B"/>
</g>
<defs>
<clipPath id="clip0_89_876">
<rect width="671" height="293.467" fill="white" transform="translate(115 303)"/>
</clipPath>
</defs>
</svg>
