<svg width="900" height="900" viewBox="0 0 900 900" fill="none" xmlns="http://www.w3.org/2000/svg">
<g clip-path="url(#clip0_89_900)">
<path d="M250.3 542.4H164.5L150.1 593.7H115L175.9 383.7H239.5L299.8 593.7H264.7L250.3 542.4ZM241.3 510.9L207.4 391.2L173.5 510.9H241.3ZM175.6 331.5C175.6 313.5 188.8 303 208 303C227.2 303 240.7 313.5 240.7 331.5V339.9C240.7 357.9 227.8 368.4 208 368.4C188.2 368.4 175.6 357.9 175.6 339.9V331.5ZM207.7 350.4C217 350.4 221.8 345.9 221.8 338.4V333C221.8 325.5 217 321 207.7 321C199 321 194.5 325.5 194.5 333V338.4C194.5 345.9 199 350.4 207.7 350.4Z" fill="white"/>
<path d="M323.8 562.5H367V414.9H323.8V383.7H444.4V414.9H400.9V562.5H444.4V593.7H323.8V562.5Z" fill="white"/>
<path d="M474.39 383.7H558.99C597.99 383.7 622.59 407.1 622.59 442.8C622.59 480.9 600.09 502.8 558.99 502.8H515.49L633.69 593.7H578.79L507.69 537V593.7H474.39V383.7ZM554.49 471.9C575.49 471.9 588.09 464.7 588.09 443.1C588.09 421.5 575.49 414.3 554.49 414.3H507.69V471.9H554.49Z" fill="white"/>
<path d="M639.17 532.24H671.07C672.93 552.99 685.32 566.82 711.96 566.82C740.46 566.82 751.92 550.58 751.92 527.73C751.92 504.88 737.36 488.64 707.63 488.64H644.75L651.25 383.7H775.77V413.47H681.3L678.2 458.27H715.06C758.73 458.27 785.99 488.04 785.99 527.43C785.99 569.53 760.59 596.89 711.96 596.89C663.33 596.89 640.41 567.42 639.17 532.24Z" fill="white"/>
</g>
<defs>
<clipPath id="clip0_89_900">
<rect width="670.99" height="293.89" fill="white" transform="translate(115 303)"/>
</clipPath>
</defs>
</svg>
