<?xml version="1.0" encoding="UTF-8"?>
<svg id="Layer_2" data-name="Layer 2" xmlns="http://www.w3.org/2000/svg" viewBox="0 0 670.99 293.89">
  <defs>
    <style>
      .cls-1 {
        fill: #fff;
      }

      .cls-1, .cls-2 {
        stroke-width: 0px;
      }

      .cls-2 {
        fill: #e6f56b;
      }
    </style>
  </defs>
  <g id="Layer_1-2" data-name="Layer 1">
    <g>
      <path class="cls-1" d="M135.3,239.4H49.5l-14.4,51.3H0L60.9,80.7h63.6l60.3,210h-35.1l-14.4-51.3ZM126.3,207.9l-33.9-119.7-33.9,119.7h67.8ZM60.6,28.5C60.6,10.5,73.8,0,93,0s32.7,10.5,32.7,28.5v8.4c0,18-12.9,28.5-32.7,28.5s-32.4-10.5-32.4-28.5v-8.4ZM92.7,47.4c9.3,0,14.1-4.5,14.1-12v-5.4c0-7.5-4.8-12-14.1-12-8.7,0-13.2,4.5-13.2,12v5.4c0,7.5,4.5,12,13.2,12Z"/>
      <path class="cls-1" d="M208.8,259.5h43.2V111.9h-43.2v-31.2h120.6v31.2h-43.5v147.6h43.5v31.2h-120.6v-31.2Z"/>
      <path class="cls-1" d="M359.39,80.7h84.6c39,0,63.6,23.4,63.6,59.1,0,38.1-22.5,60-63.6,60h-43.5l118.2,90.9h-54.9l-71.1-56.7v56.7h-33.3V80.7ZM439.49,168.9c21,0,33.6-7.2,33.6-28.8s-12.6-28.8-33.6-28.8h-46.8v57.6h46.8Z"/>
      <path class="cls-2" d="M524.17,229.24h31.9c1.86,20.75,14.25,34.58,40.89,34.58,28.5,0,39.96-16.24,39.96-39.09s-14.56-39.09-44.29-39.09h-62.88l6.5-104.94h124.52v29.77h-94.47l-3.1,44.8h36.86c43.67,0,70.93,29.77,70.93,69.16,0,42.1-25.4,69.46-74.03,69.46s-71.55-29.47-72.79-64.65Z"/>
    </g>
  </g>
</svg>